<svg width="100" height="100" viewBox="0 0 24 24" fill="none" xmlns="http://www.w3.org/2000/svg">
  <path d="M12 2C11.4477 2 11 2.44772 11 3V13.5858L7.70711 10.2929C7.31658 9.90237 6.68342 9.90237 6.29289 10.2929C5.90237 10.6834 5.90237 11.3166 6.29289 11.7071L12 17.4142L17.7071 11.7071C18.0976 11.3166 18.0976 10.6834 17.7071 10.2929C17.3166 9.90237 16.6834 9.90237 16.2929 10.2929L13 13.5858V3C13 2.44772 12.5523 2 12 2Z" stroke="#00F8F8" fill="#00F8F8"/>
  <path d="M4 22H20C20.5523 22 21 21.5523 21 21C21 20.4477 20.5523 20 20 20H4C3.44772 20 3 20.4477 3 21C3 21.5523 3.44772 22 4 22Z" stroke="#00F8F8" fill="#00F8F8"/>
</svg>